<svg width="50" height="49" viewBox="0 0 50 49" fill="none" xmlns="http://www.w3.org/2000/svg">
<path d="M21.3307 48.9263C9.66945 47.3051 -0.120077 37.5518 0.00111331 24.3057C0.122304 10.5851 11.595 -0.14353 25.1953 0.00145216C38.9303 0.146434 49.8913 10.8751 49.9991 24.3848C50.0529 30.9353 47.8176 36.7214 43.1989 41.5322C39.5497 45.3413 35.1195 47.8455 29.8544 48.9658C29.8544 43.0743 29.8544 37.2486 29.8544 31.3571C31.4838 31.3571 33.0997 31.3571 34.7425 31.3571C35.1195 29.0242 35.4831 26.7572 35.8467 24.4375C33.3421 24.4375 30.9048 24.4375 28.4136 24.4375C28.4136 23.0668 28.4002 21.7356 28.4136 20.4044C28.4136 19.9299 28.4136 19.4422 28.5079 18.9809C28.8041 17.3597 29.8814 16.3581 31.5511 16.2394C33.0593 16.134 34.5809 16.1604 36.089 16.134C36.3449 16.134 36.5873 16.134 36.87 16.134C36.87 14.1042 36.87 12.1272 36.87 10.0711C35.9544 9.96567 35.0253 9.83387 34.0961 9.75479C32.0628 9.58344 30.0295 9.46482 28.0231 9.96567C24.4278 10.8751 22.0309 13.3925 21.5731 16.9907C21.3576 18.6514 21.4115 20.3385 21.3576 22.0124C21.3307 22.8032 21.3576 23.594 21.3576 24.4243C19.4724 24.4243 17.6276 24.4243 15.7425 24.4243C15.7425 26.744 15.7425 29.0242 15.7425 31.3571C17.5872 31.3571 19.4455 31.3571 21.3307 31.3571C21.3307 37.2486 21.3307 43.0875 21.3307 48.9263Z" fill="#64595D"/>
</svg>
