<svg width="50" height="49" viewBox="0 0 50 49" fill="none" xmlns="http://www.w3.org/2000/svg">
<path d="M38.4768 48.551C29.4872 48.551 20.4976 48.551 11.5232 48.551C11.1722 48.4918 10.8211 48.4325 10.4701 48.3732C5.87607 47.5287 2.67094 45.0101 0.900488 40.832C0.442613 39.7357 0.289988 38.5208 0 37.3652C0 28.6387 0 19.9123 0 11.2007C0.198413 10.2969 0.30525 9.36352 0.610501 8.48939C2.30464 3.39279 7.03602 0.0444471 12.5916 0.0296314C20.8486 -0.0148157 29.1361 0 37.4237 0.0148157C40.1099 0.0148157 42.5672 0.740785 44.7344 2.28162C48.2601 4.80028 50 8.20789 50 12.4452C50 20.2827 50 28.1202 50 35.9577C50 36.7577 49.9542 37.5726 49.8168 38.3578C48.9774 42.847 46.3523 45.9731 42.0177 47.6917C40.8883 48.1362 39.652 48.2843 38.4768 48.551ZM45.8028 24.2829H45.8181C45.8181 20.3271 45.8181 16.3862 45.8181 12.4304C45.8181 11.171 45.6502 9.94133 45.0702 8.80052C43.4524 5.65959 40.8272 4.07432 37.21 4.07432C29.0751 4.0595 20.9249 4.07432 12.79 4.07432C12.2405 4.07432 11.6911 4.11876 11.1416 4.19284C7.35653 4.71139 4.22772 8.03011 4.19719 11.7637C4.13614 20.0308 4.16667 28.298 4.16667 36.5503C4.16667 37.6763 4.3956 38.7579 4.89927 39.7653C6.50183 42.9062 9.12698 44.5212 12.7442 44.5212C20.8944 44.536 29.0598 44.5212 37.21 44.5212C37.7595 44.5212 38.3089 44.4767 38.8584 44.4026C42.5672 43.9137 45.7265 40.5506 45.7723 36.9059C45.8486 32.6834 45.8028 28.4906 45.8028 24.2829Z" fill="#64595D"/>
<path d="M37.5 24.2828C37.5 30.9795 31.8376 36.4465 24.9695 36.4169C18.0861 36.3872 12.4848 30.9499 12.5 24.268C12.5 17.5862 18.1472 12.1192 25.0153 12.1488C31.9139 12.1784 37.5 17.6158 37.5 24.2828ZM25 16.2083C20.406 16.2083 16.682 19.7937 16.6667 24.268C16.6514 28.7275 20.345 32.3426 24.9542 32.3722C29.5635 32.4018 33.3181 28.772 33.3028 24.2828C33.3028 19.8085 29.6093 16.2083 25 16.2083Z" fill="#64595D"/>
<path d="M38.5226 14.1491C36.7979 14.1491 35.4243 12.8157 35.4243 11.1415C35.4243 9.46738 36.8285 8.08955 38.5531 8.10437C40.2625 8.11918 41.6514 9.46738 41.6666 11.1267C41.6819 12.786 40.2625 14.1639 38.5226 14.1491Z" fill="#64595D"/>
</svg>
